<svg width="1794" height="1628.04" viewBox="0 0 1794 1628.04" fill="none" xmlns="http://www.w3.org/2000/svg">
<g id="front">
<g id="base">
<path d="M1113.93 3.54336L1177.1 41.5878C1244.59 74.7054 1379.08 150.713 1447.99 221.697C1459.57 233.633 1469.31 245.427 1476.55 256.852C1539.48 356.056 1781.8 735.778 1786.38 762.987C1792.16 775.749 1795.54 788.992 1782.52 795.734C1772.1 801.128 1564.56 943.738 1462.09 1014.37C1462.86 1021.11 1493.91 1562.4 1497.29 1590.81C1499.99 1613.54 1482.66 1616.98 1473.66 1615.86C1469.8 1616.66 1455.53 1617.78 1429.3 1615.86C1396.51 1613.45 353.233 1624.28 322.372 1625.49C291.51 1626.69 302.601 1608.15 303.565 1587.92C304.337 1571.74 318.675 1172.97 325.747 975.602C230.349 919.82 34.9248 805.414 16.4077 794.049C-2.10933 782.683 1.78054 771.816 6.0401 767.803C76.7485 638.127 232.671 362.063 318.127 243.849C322.906 237.238 327.465 231.12 331.776 225.549C413.174 120.373 559.06 62.6166 621.829 46.8851L679.936 3.54336C697.054 24.6524 766.831 66.0518 908.988 62.7771C1051.14 59.5024 1104.85 21.9235 1113.93 3.54336Z" fill="black"/>
<path d="M621.829 46.8851C652.932 109.731 753.907 234.603 908.988 231.328C1064.07 228.054 1152.35 103.47 1177.1 41.5878M1177.1 41.5878L1113.93 3.54336C1104.85 21.9235 1051.14 59.5024 908.988 62.7771C766.831 66.0518 697.054 24.6524 679.936 3.54336L621.829 46.8851M325.747 975.602C230.349 919.82 34.9248 805.414 16.4077 794.049C-2.10933 782.683 1.78054 771.816 6.0401 767.803C76.7485 638.127 232.671 362.063 318.127 243.849C322.906 237.238 327.465 231.12 331.776 225.549C413.174 120.373 559.06 62.6166 621.829 46.8851M1177.1 41.5878C1244.59 74.7054 1379.08 150.713 1447.99 221.697M1113.93 3.54336C1112.02 27.2475 1101.8 61.0915 1077.83 90.986M679.936 3.54336C685.796 26.4992 703.039 60.6816 735.873 90.986M735.873 90.986C772.377 124.679 828.154 153.578 908.988 156.925C994.847 160.48 1047.41 128.911 1077.83 90.986M735.873 90.986C756.527 102.853 820.067 126.778 908.988 127.549C997.908 128.319 1058.6 103.495 1077.83 90.986M325.747 975.602C359.422 885.548 426.916 695.278 427.495 654.633C428.073 613.988 432.397 484.877 434.487 425.403C433.442 404.454 425.759 356.201 403.384 330.774C381.009 305.346 337.223 262.229 318.127 243.849M1447.99 221.697C1385.67 299.471 1391.44 343.294 1370.47 448.037C1349.49 552.78 1411.45 709.291 1425.44 762.987C1436.63 805.943 1454.53 948.474 1462.09 1014.37C1462.86 1021.11 1493.91 1562.4 1497.29 1590.81C1499.99 1613.54 1482.66 1616.98 1473.66 1615.86C1469.8 1616.66 1455.53 1617.78 1429.3 1615.86C1396.51 1613.45 353.233 1624.28 322.372 1625.49C291.51 1626.69 302.601 1608.15 303.565 1587.92C304.337 1571.74 318.675 1172.97 325.747 975.602M1462.09 1014.37C1564.56 943.738 1772.1 801.128 1782.52 795.734C1795.54 788.992 1792.16 775.749 1786.38 762.987C1781.8 735.778 1539.48 356.056 1476.55 256.852C1469.31 245.427 1459.57 233.633 1447.99 221.697" stroke="#151515" stroke-width="5"/>
</g>
</g>
</svg>
