<svg width="1755" height="756" viewBox="0 0 1755 756" fill="none" xmlns="http://www.w3.org/2000/svg">
<path d="M1654.64 413.66C1709.78 413.66 1754.49 458.364 1754.49 513.509C1754.49 568.654 1709.78 613.358 1654.64 613.358C1599.49 613.358 1554.79 568.654 1554.79 513.509C1554.79 510.051 1554.96 506.634 1555.31 503.266C1559.84 543.412 1593.91 574.611 1635.26 574.611C1679.71 574.611 1715.74 538.581 1715.74 494.135C1715.74 452.778 1684.54 418.712 1644.4 414.178C1647.76 413.835 1651.18 413.66 1654.64 413.66Z" fill="white"/>
<path d="M158.772 756C131.272 756 105.329 753.145 80.9427 747.436C56.5561 741.726 36.8393 732.643 21.7923 720.185C7.26409 708.247 0 692.935 0 674.249C0 656.082 7.26409 640.511 21.7923 627.534C36.3204 614.558 56.0373 604.696 80.9427 597.948L85.6124 610.406C74.1975 614.039 65.1174 621.306 58.3721 632.206C51.6269 643.106 48.2543 655.304 48.2543 668.799C48.2543 692.676 59.1504 710.842 80.9427 723.3C103.254 736.276 132.051 742.764 167.333 742.764C190.682 742.764 213.512 739.65 235.823 733.421C258.135 727.712 276.554 717.85 291.082 703.835C305.611 689.821 312.875 671.394 312.875 648.556C312.875 631.427 306.648 617.413 294.196 606.513C282.262 595.094 258.394 589.384 222.592 589.384H164.999C148.395 589.384 132.31 588.086 116.744 585.491C101.178 582.896 88.4662 577.446 78.6078 569.141C68.7494 560.836 63.8202 548.119 63.8202 530.991C63.8202 513.343 71.0843 496.474 85.6124 480.383C100.141 463.773 126.862 446.904 165.777 429.776L175.116 436.783C157.475 446.126 142.169 455.728 129.197 465.59C116.225 474.933 109.74 486.093 109.74 499.069C109.74 515.679 122.192 523.984 147.098 523.984H244.385C266.177 523.984 286.153 527.098 304.313 533.326C322.992 539.555 338.039 549.417 349.454 562.912C360.869 576.408 366.577 594.056 366.577 615.856C366.577 640.251 358.794 663.09 343.228 684.371C327.662 705.652 304.313 722.781 273.182 735.757C242.569 749.252 204.432 756 158.772 756ZM162.664 443.79C137.239 443.79 114.15 439.637 93.3954 431.333C72.6409 422.509 56.2967 409.013 44.3628 390.847C32.429 372.68 26.462 349.322 26.462 320.774C26.462 292.227 32.429 268.869 44.3628 250.702C56.2967 232.536 72.6409 219.3 93.3954 210.995C114.15 202.171 137.239 197.759 162.664 197.759C188.607 197.759 211.696 202.171 231.932 210.995C252.686 219.3 269.031 232.536 280.964 250.702C292.898 268.869 298.865 292.227 298.865 320.774C298.865 349.322 292.898 372.68 280.964 390.847C269.031 409.013 252.686 422.509 231.932 431.333C211.696 439.637 188.607 443.79 162.664 443.79ZM162.664 429.776C182.38 429.776 197.687 421.99 208.583 406.418C219.998 390.847 225.706 362.299 225.706 320.774C225.706 279.25 219.998 250.702 208.583 235.131C197.687 219.559 182.38 211.773 162.664 211.773C143.466 211.773 128.159 219.559 116.744 235.131C105.329 250.702 99.6218 279.25 99.6218 320.774C99.6218 362.299 105.329 390.847 116.744 406.418C128.159 421.99 143.466 429.776 162.664 429.776ZM274.738 262.381L260.729 256.931C267.993 239.283 280.446 223.712 298.087 210.216C315.728 196.721 334.148 189.973 353.346 189.973C366.836 189.973 377.733 193.866 386.034 201.652C394.336 208.919 398.487 220.078 398.487 235.131C398.487 251.221 394.077 262.641 385.256 269.388C376.954 275.617 368.393 278.731 359.572 278.731C351.789 278.731 344.525 276.136 337.78 270.945C331.035 265.236 327.143 256.412 326.106 244.474C325.068 232.536 328.7 217.223 337.002 198.538L347.12 200.873C325.327 209.178 309.761 218.002 300.422 227.345C291.082 236.169 282.521 247.848 274.738 262.381Z" fill="white"/>
<path d="M668.805 197.759C682.814 197.759 695.007 200.614 705.385 206.323C716.281 212.033 724.583 219.559 730.29 228.902C736.516 237.726 739.63 247.848 739.63 259.267C739.63 272.243 735.479 283.662 727.177 293.524C719.394 303.386 708.757 308.317 695.267 308.317C684.371 308.317 674.772 304.943 666.47 298.196C658.168 290.929 654.017 280.807 654.017 267.831C654.017 257.969 656.611 249.664 661.8 242.917C667.508 235.65 673.734 229.94 680.479 225.788C676.847 220.597 671.399 218.002 664.135 218.002C648.05 218.002 633.263 222.933 619.772 232.795C606.282 242.138 594.867 254.336 585.527 269.388C576.188 284.441 568.924 300.531 563.735 317.66C558.546 334.27 555.952 349.841 555.952 364.375V529.434C555.952 554.867 563.216 571.996 577.744 580.82C592.791 589.125 613.027 593.277 638.451 593.277V609.627C626.517 609.108 609.654 608.589 587.862 608.07C566.07 607.032 542.98 606.513 518.594 606.513C500.952 606.513 483.311 607.032 465.67 608.07C448.547 608.589 435.576 609.108 426.755 609.627V593.277C448.028 593.277 463.075 589.384 471.896 581.598C481.236 573.813 485.905 559.02 485.905 537.219V293.524C485.905 270.167 481.754 253.038 473.453 242.138C465.151 230.719 449.585 225.009 426.755 225.009V208.659C443.359 210.216 459.443 210.995 475.009 210.995C490.056 210.995 504.325 210.216 517.815 208.659C531.825 206.583 544.537 203.728 555.952 200.095V297.417C561.659 282.365 569.702 267.312 580.079 252.26C590.975 236.688 603.947 223.712 618.994 213.331C634.041 202.95 650.644 197.759 668.805 197.759Z" fill="white"/>
<path d="M989.292 197.759C1031.84 197.759 1067.12 215.407 1095.14 250.702C1123.16 285.479 1137.17 338.422 1137.17 409.532C1137.17 456.247 1129.13 495.436 1113.04 527.098C1097.47 558.241 1076.46 581.598 1050 597.17C1023.54 612.742 994.74 620.527 963.608 620.527C937.665 620.527 912.5 613.261 888.114 598.727C864.246 583.675 846.345 561.615 834.411 532.548L849.977 541.112C862.949 561.874 879.034 577.446 898.232 587.827C917.429 597.689 937.146 602.62 957.382 602.62C992.146 602.62 1018.09 587.048 1035.21 555.905C1052.85 524.243 1061.67 475.452 1061.67 409.532C1061.67 367.489 1058.3 332.453 1051.56 304.424C1044.81 276.395 1034.43 255.633 1020.42 242.138C1006.41 228.124 988.514 221.116 966.721 221.116C942.854 221.116 920.543 232.016 899.788 253.817C879.552 275.098 867.1 306.501 862.43 348.025L853.09 337.125C858.798 293.005 874.104 258.748 899.01 234.352C924.434 209.957 954.528 197.759 989.292 197.759ZM867.878 0V569.141C861.133 574.851 854.128 580.82 846.864 587.048C840.119 592.758 833.374 598.468 826.628 604.177C819.883 609.887 812.878 615.856 805.614 622.084L792.383 616.634C794.459 609.368 795.756 602.101 796.275 594.834C797.313 587.048 797.831 579.263 797.831 571.477V93.4295C797.831 70.0721 793.681 52.9434 785.379 42.0433C777.077 30.6241 761.511 24.9145 738.681 24.9145V8.56439C755.285 10.1215 771.369 10.9001 786.935 10.9001C801.982 10.9001 816.251 10.1215 829.742 8.56439C843.751 6.48818 856.463 3.63338 867.878 0Z" fill="white"/>
<path d="M1321.99 79.415V209.438H1437.18V225.009H1321.99V526.319C1321.99 550.715 1326.41 567.843 1335.23 577.705C1344.05 587.567 1356.24 592.498 1371.81 592.498C1387.37 592.498 1400.86 586.27 1412.28 573.813C1423.69 560.836 1433.55 539.296 1441.85 509.191L1457.42 513.083C1452.23 543.188 1441.85 568.622 1426.29 589.384C1411.24 610.146 1387.89 620.527 1356.24 620.527C1338.6 620.527 1324.07 618.192 1312.66 613.52C1301.24 609.368 1291.12 603.139 1282.3 594.834C1270.89 582.896 1262.84 568.622 1258.17 552.012C1254.02 535.403 1251.95 513.343 1251.95 485.833V225.009H1177.23V209.438H1251.95V90.3151C1264.92 89.7961 1277.37 88.758 1289.31 87.2009C1301.24 85.6437 1312.14 83.0484 1321.99 79.415Z" fill="white"/>
<path d="M158.772 756C131.272 756 105.329 753.145 80.9427 747.436C56.5561 741.726 36.8393 732.643 21.7923 720.185C7.26409 708.247 0 692.935 0 674.249C0 656.082 7.26409 640.511 21.7923 627.534C36.3204 614.558 56.0373 604.696 80.9427 597.948L85.6124 610.406C74.1975 614.039 65.1174 621.306 58.3721 632.206C51.6269 643.106 48.2543 655.304 48.2543 668.799C48.2543 692.676 59.1504 710.842 80.9427 723.3C103.254 736.276 132.051 742.764 167.333 742.764C190.682 742.764 213.512 739.65 235.823 733.421C258.135 727.712 276.554 717.85 291.082 703.835C305.611 689.821 312.875 671.394 312.875 648.556C312.875 631.427 306.648 617.413 294.196 606.513C282.262 595.094 258.394 589.384 222.592 589.384H164.999C148.395 589.384 132.31 588.086 116.744 585.491C101.178 582.896 88.4662 577.446 78.6078 569.141C68.7494 560.836 63.8202 548.119 63.8202 530.991C63.8202 513.343 71.0843 496.474 85.6124 480.383C100.141 463.773 126.862 446.904 165.777 429.776L175.116 436.783C157.475 446.126 142.169 455.728 129.197 465.59C116.225 474.933 109.74 486.093 109.74 499.069C109.74 515.679 122.192 523.984 147.098 523.984H244.385C266.177 523.984 286.153 527.098 304.313 533.326C322.992 539.555 338.039 549.417 349.454 562.912C360.869 576.408 366.577 594.056 366.577 615.856C366.577 640.251 358.794 663.09 343.228 684.371C327.662 705.652 304.313 722.781 273.182 735.757C242.569 749.252 204.432 756 158.772 756ZM162.664 443.79C137.239 443.79 114.15 439.637 93.3954 431.333C72.6409 422.509 56.2967 409.013 44.3628 390.847C32.429 372.68 26.462 349.322 26.462 320.774C26.462 292.227 32.429 268.869 44.3628 250.702C56.2967 232.536 72.6409 219.3 93.3954 210.995C114.15 202.171 137.239 197.759 162.664 197.759C188.607 197.759 211.696 202.171 231.932 210.995C252.686 219.3 269.031 232.536 280.964 250.702C292.898 268.869 298.865 292.227 298.865 320.774C298.865 349.322 292.898 372.68 280.964 390.847C269.031 409.013 252.686 422.509 231.932 431.333C211.696 439.637 188.607 443.79 162.664 443.79ZM162.664 429.776C182.38 429.776 197.687 421.99 208.583 406.418C219.998 390.847 225.706 362.299 225.706 320.774C225.706 279.25 219.998 250.702 208.583 235.131C197.687 219.559 182.38 211.773 162.664 211.773C143.466 211.773 128.159 219.559 116.744 235.131C105.329 250.702 99.6218 279.25 99.6218 320.774C99.6218 362.299 105.329 390.847 116.744 406.418C128.159 421.99 143.466 429.776 162.664 429.776ZM274.738 262.381L260.729 256.931C267.993 239.283 280.446 223.712 298.087 210.216C315.728 196.721 334.148 189.973 353.346 189.973C366.836 189.973 377.733 193.866 386.034 201.652C394.336 208.919 398.487 220.078 398.487 235.131C398.487 251.221 394.077 262.641 385.256 269.388C376.954 275.617 368.393 278.731 359.572 278.731C351.789 278.731 344.525 276.136 337.78 270.945C331.035 265.236 327.143 256.412 326.106 244.474C325.068 232.536 328.7 217.223 337.002 198.538L347.12 200.873C325.327 209.178 309.761 218.002 300.422 227.345C291.082 236.169 282.521 247.848 274.738 262.381Z" fill="white"/>
<path d="M668.805 197.759C682.814 197.759 695.007 200.614 705.385 206.323C716.281 212.033 724.583 219.559 730.29 228.902C736.516 237.726 739.63 247.848 739.63 259.267C739.63 272.243 735.479 283.662 727.177 293.524C719.394 303.386 708.757 308.317 695.267 308.317C684.371 308.317 674.772 304.943 666.47 298.196C658.168 290.929 654.017 280.807 654.017 267.831C654.017 257.969 656.611 249.664 661.8 242.917C667.508 235.65 673.734 229.94 680.479 225.788C676.847 220.597 671.399 218.002 664.135 218.002C648.05 218.002 633.263 222.933 619.772 232.795C606.282 242.138 594.867 254.336 585.527 269.388C576.188 284.441 568.924 300.531 563.735 317.66C558.546 334.27 555.952 349.841 555.952 364.375V529.434C555.952 554.867 563.216 571.996 577.744 580.82C592.791 589.125 613.027 593.277 638.451 593.277V609.627C626.517 609.108 609.654 608.589 587.862 608.07C566.07 607.032 542.98 606.513 518.594 606.513C500.952 606.513 483.311 607.032 465.67 608.07C448.547 608.589 435.576 609.108 426.755 609.627V593.277C448.028 593.277 463.075 589.384 471.896 581.598C481.236 573.813 485.905 559.02 485.905 537.219V293.524C485.905 270.167 481.754 253.038 473.453 242.138C465.151 230.719 449.585 225.009 426.755 225.009V208.659C443.359 210.216 459.443 210.995 475.009 210.995C490.056 210.995 504.325 210.216 517.815 208.659C531.825 206.583 544.537 203.728 555.952 200.095V297.417C561.659 282.365 569.702 267.312 580.079 252.26C590.975 236.688 603.947 223.712 618.994 213.331C634.041 202.95 650.644 197.759 668.805 197.759Z" fill="white"/>
<path d="M989.292 197.759C1031.84 197.759 1067.12 215.407 1095.14 250.702C1123.16 285.479 1137.17 338.422 1137.17 409.532C1137.17 456.247 1129.13 495.436 1113.04 527.098C1097.47 558.241 1076.46 581.598 1050 597.17C1023.54 612.742 994.74 620.527 963.608 620.527C937.665 620.527 912.5 613.261 888.114 598.727C864.246 583.675 846.345 561.615 834.411 532.548L849.977 541.112C862.949 561.874 879.034 577.446 898.232 587.827C917.429 597.689 937.146 602.62 957.382 602.62C992.146 602.62 1018.09 587.048 1035.21 555.905C1052.85 524.243 1061.67 475.452 1061.67 409.532C1061.67 367.489 1058.3 332.453 1051.56 304.424C1044.81 276.395 1034.43 255.633 1020.42 242.138C1006.41 228.124 988.514 221.116 966.721 221.116C942.854 221.116 920.543 232.016 899.788 253.817C879.552 275.098 867.1 306.501 862.43 348.025L853.09 337.125C858.798 293.005 874.104 258.748 899.01 234.352C924.434 209.957 954.528 197.759 989.292 197.759ZM867.878 0V569.141C861.133 574.851 854.128 580.82 846.864 587.048C840.119 592.758 833.374 598.468 826.628 604.177C819.883 609.887 812.878 615.856 805.614 622.084L792.383 616.634C794.459 609.368 795.756 602.101 796.275 594.834C797.313 587.048 797.831 579.263 797.831 571.477V93.4295C797.831 70.0721 793.681 52.9434 785.379 42.0433C777.077 30.6241 761.511 24.9145 738.681 24.9145V8.56439C755.285 10.1215 771.369 10.9001 786.935 10.9001C801.982 10.9001 816.251 10.1215 829.742 8.56439C843.751 6.48818 856.463 3.63338 867.878 0Z" fill="white"/>
<path d="M1321.99 79.415V209.438H1437.18V225.009H1321.99V526.319C1321.99 550.715 1326.41 567.843 1335.23 577.705C1344.05 587.567 1356.24 592.498 1371.81 592.498C1387.37 592.498 1400.86 586.27 1412.28 573.813C1423.69 560.836 1433.55 539.296 1441.85 509.191L1457.42 513.083C1452.23 543.188 1441.85 568.622 1426.29 589.384C1411.24 610.146 1387.89 620.527 1356.24 620.527C1338.6 620.527 1324.07 618.192 1312.66 613.52C1301.24 609.368 1291.12 603.139 1282.3 594.834C1270.89 582.896 1262.84 568.622 1258.17 552.012C1254.02 535.403 1251.95 513.343 1251.95 485.833V225.009H1177.23V209.438H1251.95V90.3151C1264.92 89.7961 1277.37 88.758 1289.31 87.2009C1301.24 85.6437 1312.14 83.0484 1321.99 79.415Z" fill="white"/>
</svg>
